# xmcd CD database file
#
# Track frame offsets:
#	150
#	15310
#	32341
#	51633
#	72037
#	101066
#	122595
#	142624
#	161596
#
# Disc length: 2604 seconds
#
# Revision: 0
# Processed by: cddbd v1.5.2PL0 Copyright (c) Steve Scherf et al.
# Submitted via: CDex 1.51
#
DISCID=690a2a09
DTITLE=Syahrani - Love
DYEAR=1999
DGENRE=Jazz
TTITLE0=Unforgettable
TTITLE1=New York, New York
TTITLE2=Crazy
TTITLE3=Love
TTITLE4=You've Got A Friend
TTITLE5=For Once In My Life
TTITLE6=What A Wonderful World
TTITLE7=For Sentimental Reasons
TTITLE8=Killing Me Softly
EXTD=YEAR: 1999
EXTT0=
EXTT1=
EXTT2=
EXTT3=
EXTT4=
EXTT5=
EXTT6=
EXTT7=
EXTT8=
PLAYORDER=
